<?xml version="1.0" encoding="UTF-8"?>
<svg id="Layer_1" xmlns="http://www.w3.org/2000/svg" version="1.1" viewBox="0 0 432 1224">
  <!-- Generator: Adobe Illustrator 29.1.0, SVG Export Plug-In . SVG Version: 2.1.0 Build 142)  -->
  <defs>
    <style>
      .st0 {
        fill: #f26522;
      }
    </style>
  </defs>
  <path d="M295,609.5l-5.8,15.9c-3.5,9.6-12.6,15.9-22.7,15.9h-23.9l-3-2.2c-2.6,7.2-9.5,12.1-17.2,12.1h-27.2l-13.2-9.8h-47l16.7-45.7c3-8.3,10.9-13.9,19.8-13.9h28.2c2.2-5.9,7.8-9.8,14.1-9.8h37.8l10,7.4-.9,2.4h15c14.4,0,24.4,14.3,19.4,27.8Z"/>
  <polygon class="st0" points="187.6 626.4 185.4 632.5 146.9 632.5 149.1 626.4 187.6 626.4"/>
  <path class="st0" d="M251.1,583.3l-3.8-2.4s-28.2,0-31.6,0c-6,0-6.7,3.4-7.6,5.6l-18.5,48.6,8.3,6h23.7c6.8,0,8.4-2.9,9.6-6.1l3-7.8h-27.5l4.8-12.2h26.4l4.5-11.4h-26.5l4.2-11.7h27.5M198.3,635.7h0s0,0,0,0h0Z"/>
  <path class="st0" d="M194,591.3h-23.6c-4.6,0-8.6,2.7-10.2,6.8l-6.6,16.9,8.1,5.9h20.4c4.7,0,8.9-2.7,10.5-6.8l7.2-18.6-5.7-4.1ZM178.3,616.3h-7.6l-3.6-2.5,7-17.9h12.1l-8,20.5Z"/>
  <path class="st0" d="M253.6,590.7l-13.9,35.7h.1c0,0,7.6,6.1,7.6,6.1h20.9c5.7-.8,9.6-3.1,11.8-9.4l6.2-16.2c3.4-8.7-2-15.6-10.1-16.2h-22.7ZM243.8,620.8h0s0,0,0,0h0ZM262.7,627.2h-9.6l12.1-31.4h8.2c2.2,0,3.6,2,2.9,3.9l-9.5,24.6c-.7,1.7-2.3,2.9-4.2,2.9Z"/>
  <path class="st0" d="M208.6,587.4"/>
  <path class="st0" d="M276.5,581.9h-15.2l.9-3.1-10.1-7.6h-38.4c-6.4,0-12.1,4-14.3,10h-28.6c-9,0-17,5.6-20.1,14.1l-16.9,46.5h47.7l13.4,10h27.7c7.8,0,14.8-4.9,17.5-12.3l3,2.3h24.2c10.3,0,19.6-6.5,22.1-16.2l5.9-16.2c5.2-14.4-2.7-27.2-18.8-27.6ZM290.7,608.4l-5.9,16.2c-2.9,7.9-8.9,12.5-16.9,12.5h-23.3,0c0,0-6.8-5.1-6.8-5.1l-1.8,4.9c-2.2,6.1-8.1,10.2-14.6,10.2h-25l-13.4-10h-42.5l5.6-15.8h8.4s-6.6-4.9-6.6-4.9l7-18.9c2.5-6.9,9.1-11.5,16.4-11.5h31.3l1.2-3.3c1.5-4,5.3-6.7,9.6-6.7h37l6,4.5-2,5.5h21.5c11.6,0,19.1,10.5,14.7,22.4Z"/>
</svg>