<svg 
  width="293.576" 
  height="152" 
  viewBox="0 0 73.394 38" 
  xmlns="http://www.w3.org/2000/svg">
  
  <path d="M9.04379 12.512L5.71046 21.5894L7.73739 23.0171H5.1852L2.64648 29.9261H21.9125L20.963 32.5187L25.9394 36.1282H35.3132C38.9495 36.1282 42.1953 33.8453 43.4344 30.4245L44.3367 27.9329L47.266 29.9329H58.0068C60.8754 29.9329 63.4276 28.1349 64.4041 25.448L70.7408 7.95982H51.5286L52.4243 5.4817L47.4613 1.88574H38.2357C34.6196 1.88574 31.3872 4.14163 30.1414 7.53557L29.9866 7.95982H15.5758C12.66 7.95982 10.0472 9.778 9.04379 12.5187" 
    fill="#575757"/>
  <path d="M48.7271 9.99997L50.1278 6.18853L46.8416 3.80469H38.2019C35.4207 3.80469 32.9359 5.54206 31.9729 8.15486L28.6934 17.0841L37.8046 24.3299L35.9594 29.5151H29.9729L31.616 24.9831H6.55203L5.44092 28.0067H24.6732L23.2793 31.8114L26.5655 34.2087H35.2658C38.0133 34.2087 40.4645 32.4983 41.414 29.9192L44.7338 20.8889L35.7035 13.7037L37.5958 8.49156H43.4409L41.7911 13.1313H66.8349L67.9527 10.0134H48.7271V9.99997ZM21.4006 23.0165C23.2322 23.0165 24.8753 21.8718 25.5083 20.1479L28.5184 11.9526L25.6565 9.85156H15.7238C13.5353 9.85156 11.5757 11.2186 10.8215 13.2724L8.02686 20.8819L10.9225 23.0031H21.4006V23.0165ZM16.707 11.8179H23.2592L19.946 21.1108H13.3535L16.707 11.8179ZM57.4412 24.424C57.0776 25.4341 56.1214 26.1075 55.0507 26.1075H50.2089L54.2628 15.0166H48.9901L45.0103 26.0536L47.9665 28.0671H57.7981C59.9598 28.0671 61.8924 26.7136 62.6332 24.6866L66.1483 15.0233H60.815L57.4412 24.4307V24.424Z" 
    fill="#cbcbcb"/>
</svg>
